<svg xmlns="http://www.w3.org/2000/svg" xmlns:xlink="http://www.w3.org/1999/xlink" width="800" zoomAndPan="magnify" viewBox="0 0 600 449.999984" height="600" preserveAspectRatio="xMidYMid meet" version="1.0"><defs><clipPath id="e30f24fadf"><path d="M 189 120.320312 L 391 120.320312 L 391 300.320312 L 189 300.320312 Z M 189 120.320312 " clip-rule="nonzero"/></clipPath><clipPath id="20e34f2321"><path d="M 387.621094 295.210938 L 379.914062 295.210938 L 379.914062 185.820312 C 379.914062 185.421875 379.820312 185.042969 379.640625 184.6875 C 379.457031 184.328125 379.203125 184.035156 378.878906 183.800781 L 291.476562 120.902344 C 291.042969 120.585938 290.558594 120.429688 290.023438 120.429688 C 289.488281 120.429688 289.003906 120.585938 288.570312 120.902344 L 201.160156 184.1875 C 200.835938 184.421875 200.582031 184.714844 200.402344 185.070312 C 200.21875 185.425781 200.128906 185.800781 200.128906 186.199219 L 200.128906 295.210938 L 192.421875 295.210938 C 192.089844 295.210938 191.773438 295.277344 191.46875 295.402344 C 191.164062 295.527344 190.894531 295.707031 190.660156 295.941406 C 190.429688 296.171875 190.25 296.441406 190.121094 296.746094 C 189.996094 297.050781 189.933594 297.367188 189.933594 297.699219 C 189.933594 298.027344 189.996094 298.34375 190.121094 298.648438 C 190.25 298.953125 190.429688 299.222656 190.660156 299.457031 C 190.894531 299.691406 191.164062 299.871094 191.46875 299.996094 C 191.773438 300.121094 192.089844 300.183594 192.421875 300.183594 L 387.632812 300.183594 C 387.960938 300.183594 388.277344 300.121094 388.582031 299.996094 C 388.886719 299.871094 389.15625 299.691406 389.390625 299.457031 C 389.621094 299.222656 389.800781 298.953125 389.929688 298.648438 C 390.054688 298.34375 390.117188 298.027344 390.117188 297.699219 C 390.117188 297.367188 390.054688 297.050781 389.929688 296.746094 C 389.800781 296.441406 389.621094 296.171875 389.390625 295.941406 C 389.15625 295.707031 388.886719 295.527344 388.582031 295.402344 C 388.277344 295.277344 387.960938 295.210938 387.632812 295.210938 Z M 322.320312 295.210938 L 305.585938 295.210938 L 305.585938 278.480469 L 322.320312 278.480469 Z M 316.441406 273.507812 L 316.441406 256.777344 L 322.320312 256.777344 L 322.320312 261.523438 C 322.320312 261.855469 322.382812 262.171875 322.511719 262.476562 C 322.636719 262.78125 322.816406 263.050781 323.050781 263.28125 C 323.28125 263.515625 323.550781 263.695312 323.855469 263.820312 C 324.160156 263.949219 324.476562 264.011719 324.808594 264.011719 C 325.136719 264.011719 325.453125 263.949219 325.757812 263.820312 C 326.0625 263.695312 326.332031 263.515625 326.566406 263.28125 C 326.800781 263.050781 326.980469 262.78125 327.105469 262.476562 C 327.230469 262.171875 327.292969 261.855469 327.292969 261.523438 L 327.292969 256.777344 L 333.175781 256.777344 L 333.175781 273.507812 Z M 344.042969 295.210938 L 327.308594 295.210938 L 327.308594 278.480469 L 344.042969 278.480469 Z M 357.496094 295.210938 L 349.015625 295.210938 L 349.015625 275.996094 C 349.015625 275.664062 348.953125 275.347656 348.828125 275.042969 C 348.703125 274.738281 348.523438 274.46875 348.289062 274.234375 C 348.054688 274.003906 347.785156 273.824219 347.480469 273.699219 C 347.175781 273.570312 346.859375 273.507812 346.53125 273.507812 L 338.148438 273.507812 L 338.148438 254.289062 C 338.148438 253.960938 338.085938 253.644531 337.960938 253.339844 C 337.835938 253.035156 337.65625 252.765625 337.421875 252.53125 C 337.1875 252.296875 336.917969 252.117188 336.613281 251.992188 C 336.308594 251.867188 335.992188 251.804688 335.664062 251.804688 L 313.953125 251.804688 C 313.625 251.804688 313.304688 251.867188 313 251.992188 C 312.695312 252.117188 312.429688 252.296875 312.195312 252.53125 C 311.960938 252.765625 311.78125 253.035156 311.65625 253.339844 C 311.53125 253.644531 311.464844 253.960938 311.464844 254.289062 L 311.464844 273.507812 L 303.097656 273.507812 C 302.769531 273.507812 302.453125 273.570312 302.148438 273.699219 C 301.84375 273.824219 301.574219 274.003906 301.339844 274.234375 C 301.105469 274.46875 300.925781 274.738281 300.800781 275.042969 C 300.675781 275.347656 300.613281 275.664062 300.613281 275.996094 L 300.613281 295.210938 L 222.546875 295.210938 L 222.546875 235.828125 L 357.484375 235.828125 Z M 357.496094 230.859375 L 222.546875 230.859375 L 222.546875 223 L 357.484375 223 Z M 357.496094 218.039062 L 222.546875 218.039062 L 222.546875 210.191406 L 357.484375 210.191406 Z M 374.941406 295.210938 L 362.457031 295.210938 L 362.457031 207.699219 C 362.457031 207.367188 362.394531 207.050781 362.269531 206.746094 C 362.140625 206.441406 361.960938 206.171875 361.730469 205.941406 C 361.496094 205.707031 361.226562 205.527344 360.921875 205.402344 C 360.617188 205.277344 360.300781 205.210938 359.972656 205.210938 L 220.0625 205.210938 C 219.730469 205.210938 219.414062 205.277344 219.109375 205.402344 C 218.804688 205.527344 218.535156 205.707031 218.300781 205.941406 C 218.070312 206.171875 217.890625 206.441406 217.761719 206.746094 C 217.636719 207.050781 217.574219 207.367188 217.574219 207.699219 L 217.574219 295.210938 L 205.101562 295.210938 L 205.101562 187.472656 L 290.015625 126.003906 L 374.929688 187.101562 Z M 374.941406 295.210938 " clip-rule="nonzero"/></clipPath><linearGradient x1="19.191" gradientTransform="matrix(2.486763, 0, 0, 2.486188, 165.677648, 86.009757)" y1="95.583" x2="95.591485" gradientUnits="userSpaceOnUse" y2="19.182517" id="949ca680c4"><stop stop-opacity="1" stop-color="rgb(96.14563%, 27.929688%, 37.280273%)" offset="0"/><stop stop-opacity="1" stop-color="rgb(96.160889%, 28.067017%, 37.27417%)" offset="0.0078125"/><stop stop-opacity="1" stop-color="rgb(96.18988%, 28.343201%, 37.261963%)" offset="0.015625"/><stop stop-opacity="1" stop-color="rgb(96.220398%, 28.619385%, 37.249756%)" offset="0.0234375"/><stop stop-opacity="1" stop-color="rgb(96.250916%, 28.895569%, 37.237549%)" offset="0.03125"/><stop stop-opacity="1" stop-color="rgb(96.279907%, 29.171753%, 37.225342%)" offset="0.0390625"/><stop stop-opacity="1" stop-color="rgb(96.310425%, 29.447937%, 37.213135%)" offset="0.046875"/><stop stop-opacity="1" stop-color="rgb(96.339417%, 29.724121%, 37.200928%)" offset="0.0546875"/><stop stop-opacity="1" stop-color="rgb(96.369934%, 30.000305%, 37.188721%)" offset="0.0625"/><stop stop-opacity="1" stop-color="rgb(96.400452%, 30.276489%, 37.174988%)" offset="0.0703125"/><stop stop-opacity="1" stop-color="rgb(96.429443%, 30.552673%, 37.162781%)" offset="0.078125"/><stop stop-opacity="1" stop-color="rgb(96.459961%, 30.828857%, 37.150574%)" offset="0.0859375"/><stop stop-opacity="1" stop-color="rgb(96.490479%, 31.105042%, 37.138367%)" offset="0.09375"/><stop stop-opacity="1" stop-color="rgb(96.51947%, 31.381226%, 37.12616%)" offset="0.101562"/><stop stop-opacity="1" stop-color="rgb(96.549988%, 31.658936%, 37.113953%)" offset="0.109375"/><stop stop-opacity="1" stop-color="rgb(96.578979%, 31.93512%, 37.101746%)" offset="0.117188"/><stop stop-opacity="1" stop-color="rgb(96.609497%, 32.211304%, 37.089539%)" offset="0.125"/><stop stop-opacity="1" stop-color="rgb(96.640015%, 32.487488%, 37.077332%)" offset="0.132812"/><stop stop-opacity="1" stop-color="rgb(96.669006%, 32.763672%, 37.065125%)" offset="0.140625"/><stop stop-opacity="1" stop-color="rgb(96.699524%, 33.039856%, 37.052917%)" offset="0.148438"/><stop stop-opacity="1" stop-color="rgb(96.728516%, 33.31604%, 37.04071%)" offset="0.15625"/><stop stop-opacity="1" stop-color="rgb(96.759033%, 33.592224%, 37.028503%)" offset="0.164062"/><stop stop-opacity="1" stop-color="rgb(96.789551%, 33.868408%, 37.016296%)" offset="0.171875"/><stop stop-opacity="1" stop-color="rgb(96.818542%, 34.144592%, 37.004089%)" offset="0.179688"/><stop stop-opacity="1" stop-color="rgb(96.84906%, 34.420776%, 36.991882%)" offset="0.1875"/><stop stop-opacity="1" stop-color="rgb(96.878052%, 34.69696%, 36.979675%)" offset="0.195312"/><stop stop-opacity="1" stop-color="rgb(96.908569%, 34.973145%, 36.967468%)" offset="0.203125"/><stop stop-opacity="1" stop-color="rgb(96.939087%, 35.249329%, 36.955261%)" offset="0.210938"/><stop stop-opacity="1" stop-color="rgb(96.968079%, 35.525513%, 36.943054%)" offset="0.21875"/><stop stop-opacity="1" stop-color="rgb(96.998596%, 35.801697%, 36.930847%)" offset="0.226562"/><stop stop-opacity="1" stop-color="rgb(97.029114%, 36.079407%, 36.917114%)" offset="0.234375"/><stop stop-opacity="1" stop-color="rgb(97.058105%, 36.355591%, 36.904907%)" offset="0.242188"/><stop stop-opacity="1" stop-color="rgb(97.088623%, 36.631775%, 36.8927%)" offset="0.25"/><stop stop-opacity="1" stop-color="rgb(97.117615%, 36.907959%, 36.880493%)" offset="0.257812"/><stop stop-opacity="1" stop-color="rgb(97.148132%, 37.184143%, 36.868286%)" offset="0.265625"/><stop stop-opacity="1" stop-color="rgb(97.17865%, 37.460327%, 36.856079%)" offset="0.273438"/><stop stop-opacity="1" stop-color="rgb(97.207642%, 37.736511%, 36.843872%)" offset="0.28125"/><stop stop-opacity="1" stop-color="rgb(97.238159%, 38.012695%, 36.831665%)" offset="0.289062"/><stop stop-opacity="1" stop-color="rgb(97.267151%, 38.288879%, 36.819458%)" offset="0.296875"/><stop stop-opacity="1" stop-color="rgb(97.297668%, 38.565063%, 36.807251%)" offset="0.304688"/><stop stop-opacity="1" stop-color="rgb(97.328186%, 38.841248%, 36.795044%)" offset="0.3125"/><stop stop-opacity="1" stop-color="rgb(97.357178%, 39.117432%, 36.782837%)" offset="0.320312"/><stop stop-opacity="1" stop-color="rgb(97.387695%, 39.393616%, 36.77063%)" offset="0.328125"/><stop stop-opacity="1" stop-color="rgb(97.418213%, 39.6698%, 36.758423%)" offset="0.335938"/><stop stop-opacity="1" stop-color="rgb(97.447205%, 39.945984%, 36.746216%)" offset="0.34375"/><stop stop-opacity="1" stop-color="rgb(97.477722%, 40.222168%, 36.734009%)" offset="0.351562"/><stop stop-opacity="1" stop-color="rgb(97.506714%, 40.498352%, 36.721802%)" offset="0.359375"/><stop stop-opacity="1" stop-color="rgb(97.537231%, 40.776062%, 36.709595%)" offset="0.367188"/><stop stop-opacity="1" stop-color="rgb(97.567749%, 41.052246%, 36.697388%)" offset="0.375"/><stop stop-opacity="1" stop-color="rgb(97.596741%, 41.32843%, 36.685181%)" offset="0.382812"/><stop stop-opacity="1" stop-color="rgb(97.627258%, 41.604614%, 36.672974%)" offset="0.390625"/><stop stop-opacity="1" stop-color="rgb(97.65625%, 41.880798%, 36.660767%)" offset="0.398438"/><stop stop-opacity="1" stop-color="rgb(97.686768%, 42.156982%, 36.647034%)" offset="0.40625"/><stop stop-opacity="1" stop-color="rgb(97.717285%, 42.433167%, 36.634827%)" offset="0.414062"/><stop stop-opacity="1" stop-color="rgb(97.746277%, 42.709351%, 36.62262%)" offset="0.421875"/><stop stop-opacity="1" stop-color="rgb(97.776794%, 42.985535%, 36.610413%)" offset="0.429688"/><stop stop-opacity="1" stop-color="rgb(97.807312%, 43.261719%, 36.598206%)" offset="0.4375"/><stop stop-opacity="1" stop-color="rgb(97.836304%, 43.537903%, 36.585999%)" offset="0.445313"/><stop stop-opacity="1" stop-color="rgb(97.866821%, 43.814087%, 36.573792%)" offset="0.453125"/><stop stop-opacity="1" stop-color="rgb(97.895813%, 44.090271%, 36.561584%)" offset="0.460938"/><stop stop-opacity="1" stop-color="rgb(97.926331%, 44.366455%, 36.549377%)" offset="0.46875"/><stop stop-opacity="1" stop-color="rgb(97.956848%, 44.642639%, 36.53717%)" offset="0.473171"/><stop stop-opacity="1" stop-color="rgb(97.972107%, 44.781494%, 36.531067%)" offset="0.476562"/><stop stop-opacity="1" stop-color="rgb(97.98584%, 44.918823%, 36.524963%)" offset="0.484375"/><stop stop-opacity="1" stop-color="rgb(98.016357%, 45.195007%, 36.512756%)" offset="0.492188"/><stop stop-opacity="1" stop-color="rgb(98.045349%, 45.472717%, 36.500549%)" offset="0.5"/><stop stop-opacity="1" stop-color="rgb(98.075867%, 45.748901%, 36.488342%)" offset="0.507812"/><stop stop-opacity="1" stop-color="rgb(98.106384%, 46.025085%, 36.476135%)" offset="0.515625"/><stop stop-opacity="1" stop-color="rgb(98.135376%, 46.30127%, 36.463928%)" offset="0.523438"/><stop stop-opacity="1" stop-color="rgb(98.165894%, 46.577454%, 36.451721%)" offset="0.526829"/><stop stop-opacity="1" stop-color="rgb(98.181152%, 46.716309%, 36.445618%)" offset="0.53125"/><stop stop-opacity="1" stop-color="rgb(98.196411%, 46.853638%, 36.439514%)" offset="0.539062"/><stop stop-opacity="1" stop-color="rgb(98.225403%, 47.129822%, 36.427307%)" offset="0.546875"/><stop stop-opacity="1" stop-color="rgb(98.25592%, 47.406006%, 36.4151%)" offset="0.554688"/><stop stop-opacity="1" stop-color="rgb(98.284912%, 47.68219%, 36.402893%)" offset="0.5625"/><stop stop-opacity="1" stop-color="rgb(98.31543%, 47.958374%, 36.38916%)" offset="0.570312"/><stop stop-opacity="1" stop-color="rgb(98.345947%, 48.234558%, 36.376953%)" offset="0.578125"/><stop stop-opacity="1" stop-color="rgb(98.374939%, 48.510742%, 36.364746%)" offset="0.585937"/><stop stop-opacity="1" stop-color="rgb(98.405457%, 48.786926%, 36.352539%)" offset="0.59375"/><stop stop-opacity="1" stop-color="rgb(98.434448%, 49.06311%, 36.340332%)" offset="0.601562"/><stop stop-opacity="1" stop-color="rgb(98.464966%, 49.339294%, 36.328125%)" offset="0.609375"/><stop stop-opacity="1" stop-color="rgb(98.495483%, 49.615479%, 36.315918%)" offset="0.617188"/><stop stop-opacity="1" stop-color="rgb(98.524475%, 49.893188%, 36.303711%)" offset="0.625"/><stop stop-opacity="1" stop-color="rgb(98.554993%, 50.169373%, 36.291504%)" offset="0.632812"/><stop stop-opacity="1" stop-color="rgb(98.58551%, 50.445557%, 36.279297%)" offset="0.640625"/><stop stop-opacity="1" stop-color="rgb(98.614502%, 50.721741%, 36.26709%)" offset="0.648438"/><stop stop-opacity="1" stop-color="rgb(98.64502%, 50.997925%, 36.254883%)" offset="0.65625"/><stop stop-opacity="1" stop-color="rgb(98.674011%, 51.274109%, 36.242676%)" offset="0.664062"/><stop stop-opacity="1" stop-color="rgb(98.704529%, 51.550293%, 36.230469%)" offset="0.671875"/><stop stop-opacity="1" stop-color="rgb(98.735046%, 51.826477%, 36.218262%)" offset="0.679687"/><stop stop-opacity="1" stop-color="rgb(98.764038%, 52.102661%, 36.206055%)" offset="0.6875"/><stop stop-opacity="1" stop-color="rgb(98.794556%, 52.378845%, 36.193848%)" offset="0.695312"/><stop stop-opacity="1" stop-color="rgb(98.823547%, 52.655029%, 36.181641%)" offset="0.703125"/><stop stop-opacity="1" stop-color="rgb(98.854065%, 52.931213%, 36.169434%)" offset="0.710938"/><stop stop-opacity="1" stop-color="rgb(98.884583%, 53.207397%, 36.157227%)" offset="0.71875"/><stop stop-opacity="1" stop-color="rgb(98.913574%, 53.483582%, 36.14502%)" offset="0.726562"/><stop stop-opacity="1" stop-color="rgb(98.944092%, 53.759766%, 36.131287%)" offset="0.734375"/><stop stop-opacity="1" stop-color="rgb(98.974609%, 54.03595%, 36.11908%)" offset="0.742188"/><stop stop-opacity="1" stop-color="rgb(99.003601%, 54.312134%, 36.106873%)" offset="0.75"/><stop stop-opacity="1" stop-color="rgb(99.034119%, 54.589844%, 36.094666%)" offset="0.757812"/><stop stop-opacity="1" stop-color="rgb(99.06311%, 54.866028%, 36.082458%)" offset="0.765625"/><stop stop-opacity="1" stop-color="rgb(99.093628%, 55.142212%, 36.070251%)" offset="0.773438"/><stop stop-opacity="1" stop-color="rgb(99.124146%, 55.418396%, 36.058044%)" offset="0.78125"/><stop stop-opacity="1" stop-color="rgb(99.153137%, 55.69458%, 36.045837%)" offset="0.789062"/><stop stop-opacity="1" stop-color="rgb(99.183655%, 55.970764%, 36.03363%)" offset="0.796875"/><stop stop-opacity="1" stop-color="rgb(99.212646%, 56.246948%, 36.021423%)" offset="0.804688"/><stop stop-opacity="1" stop-color="rgb(99.243164%, 56.523132%, 36.009216%)" offset="0.8125"/><stop stop-opacity="1" stop-color="rgb(99.273682%, 56.799316%, 35.997009%)" offset="0.820312"/><stop stop-opacity="1" stop-color="rgb(99.302673%, 57.0755%, 35.984802%)" offset="0.828125"/><stop stop-opacity="1" stop-color="rgb(99.333191%, 57.351685%, 35.972595%)" offset="0.835938"/><stop stop-opacity="1" stop-color="rgb(99.363708%, 57.627869%, 35.960388%)" offset="0.84375"/><stop stop-opacity="1" stop-color="rgb(99.3927%, 57.904053%, 35.948181%)" offset="0.851562"/><stop stop-opacity="1" stop-color="rgb(99.423218%, 58.180237%, 35.935974%)" offset="0.859375"/><stop stop-opacity="1" stop-color="rgb(99.452209%, 58.456421%, 35.923767%)" offset="0.867188"/><stop stop-opacity="1" stop-color="rgb(99.482727%, 58.732605%, 35.91156%)" offset="0.875"/><stop stop-opacity="1" stop-color="rgb(99.513245%, 59.010315%, 35.899353%)" offset="0.882812"/><stop stop-opacity="1" stop-color="rgb(99.542236%, 59.286499%, 35.887146%)" offset="0.890625"/><stop stop-opacity="1" stop-color="rgb(99.572754%, 59.562683%, 35.873413%)" offset="0.898438"/><stop stop-opacity="1" stop-color="rgb(99.601746%, 59.838867%, 35.861206%)" offset="0.90625"/><stop stop-opacity="1" stop-color="rgb(99.632263%, 60.115051%, 35.848999%)" offset="0.914062"/><stop stop-opacity="1" stop-color="rgb(99.662781%, 60.391235%, 35.836792%)" offset="0.921875"/><stop stop-opacity="1" stop-color="rgb(99.691772%, 60.667419%, 35.824585%)" offset="0.929688"/><stop stop-opacity="1" stop-color="rgb(99.72229%, 60.943604%, 35.812378%)" offset="0.9375"/><stop stop-opacity="1" stop-color="rgb(99.752808%, 61.219788%, 35.800171%)" offset="0.945312"/><stop stop-opacity="1" stop-color="rgb(99.781799%, 61.495972%, 35.787964%)" offset="0.953125"/><stop stop-opacity="1" stop-color="rgb(99.812317%, 61.772156%, 35.775757%)" offset="0.960938"/><stop stop-opacity="1" stop-color="rgb(99.841309%, 62.04834%, 35.76355%)" offset="0.96875"/><stop stop-opacity="1" stop-color="rgb(99.871826%, 62.324524%, 35.751343%)" offset="0.976562"/><stop stop-opacity="1" stop-color="rgb(99.902344%, 62.600708%, 35.739136%)" offset="0.984375"/><stop stop-opacity="1" stop-color="rgb(99.931335%, 62.876892%, 35.726929%)" offset="0.992188"/><stop stop-opacity="1" stop-color="rgb(99.961853%, 63.153076%, 35.714722%)" offset="1"/></linearGradient><clipPath id="74a2bfb740"><path d="M 241 173 L 339 173 L 339 198 L 241 198 Z M 241 173 " clip-rule="nonzero"/></clipPath><clipPath id="c8aa5ee15e"><path d="M 241.882812 175.925781 L 241.882812 194.886719 C 241.882812 195.214844 241.945312 195.53125 242.070312 195.835938 C 242.199219 196.140625 242.378906 196.410156 242.609375 196.644531 C 242.84375 196.875 243.113281 197.054688 243.417969 197.183594 C 243.722656 197.308594 244.039062 197.371094 244.367188 197.371094 L 335.664062 197.371094 C 335.992188 197.371094 336.308594 197.308594 336.613281 197.183594 C 336.917969 197.054688 337.1875 196.875 337.421875 196.644531 C 337.65625 196.410156 337.835938 196.140625 337.960938 195.835938 C 338.085938 195.53125 338.148438 195.214844 338.148438 194.886719 L 338.148438 175.925781 C 338.148438 175.597656 338.085938 175.28125 337.960938 174.976562 C 337.835938 174.671875 337.65625 174.402344 337.421875 174.167969 C 337.1875 173.9375 336.917969 173.757812 336.613281 173.628906 C 336.308594 173.503906 335.992188 173.441406 335.664062 173.441406 L 244.367188 173.441406 C 244.039062 173.441406 243.722656 173.503906 243.417969 173.628906 C 243.113281 173.757812 242.84375 173.9375 242.609375 174.167969 C 242.378906 174.402344 242.199219 174.671875 242.070312 174.976562 C 241.945312 175.28125 241.882812 175.597656 241.882812 175.925781 Z M 292.503906 178.414062 L 333.175781 178.414062 L 333.175781 192.398438 L 292.503906 192.398438 Z M 246.855469 178.414062 L 287.527344 178.414062 L 287.527344 192.398438 L 246.855469 192.398438 Z M 246.855469 178.414062 " clip-rule="nonzero"/></clipPath><linearGradient x1="37.915842" gradientTransform="matrix(2.486763, 0, 0, 2.486188, 165.677648, 86.009757)" y1="52.063744" x2="62.084096" gradientUnits="userSpaceOnUse" y2="27.89518" id="735202b8a6"><stop stop-opacity="1" stop-color="rgb(97.706604%, 42.333984%, 36.639404%)" offset="0"/><stop stop-opacity="1" stop-color="rgb(97.724915%, 42.50946%, 36.631775%)" offset="0.03125"/><stop stop-opacity="1" stop-color="rgb(97.763062%, 42.858887%, 36.616516%)" offset="0.0625"/><stop stop-opacity="1" stop-color="rgb(97.801208%, 43.208313%, 36.601257%)" offset="0.09375"/><stop stop-opacity="1" stop-color="rgb(97.83783%, 43.557739%, 36.585999%)" offset="0.125"/><stop stop-opacity="1" stop-color="rgb(97.875977%, 43.907166%, 36.569214%)" offset="0.15625"/><stop stop-opacity="1" stop-color="rgb(97.914124%, 44.256592%, 36.553955%)" offset="0.1875"/><stop stop-opacity="1" stop-color="rgb(97.952271%, 44.606018%, 36.538696%)" offset="0.199125"/><stop stop-opacity="1" stop-color="rgb(97.972107%, 44.781494%, 36.531067%)" offset="0.21875"/><stop stop-opacity="1" stop-color="rgb(97.990417%, 44.955444%, 36.523438%)" offset="0.25"/><stop stop-opacity="1" stop-color="rgb(98.027039%, 45.304871%, 36.508179%)" offset="0.28125"/><stop stop-opacity="1" stop-color="rgb(98.065186%, 45.655823%, 36.491394%)" offset="0.3125"/><stop stop-opacity="1" stop-color="rgb(98.103333%, 46.005249%, 36.476135%)" offset="0.34375"/><stop stop-opacity="1" stop-color="rgb(98.141479%, 46.354675%, 36.460876%)" offset="0.375"/><stop stop-opacity="1" stop-color="rgb(98.179626%, 46.704102%, 36.445618%)" offset="0.40625"/><stop stop-opacity="1" stop-color="rgb(98.217773%, 47.053528%, 36.430359%)" offset="0.4375"/><stop stop-opacity="1" stop-color="rgb(98.254395%, 47.402954%, 36.4151%)" offset="0.46875"/><stop stop-opacity="1" stop-color="rgb(98.292542%, 47.75238%, 36.398315%)" offset="0.5"/><stop stop-opacity="1" stop-color="rgb(98.330688%, 48.101807%, 36.383057%)" offset="0.53125"/><stop stop-opacity="1" stop-color="rgb(98.368835%, 48.451233%, 36.367798%)" offset="0.5625"/><stop stop-opacity="1" stop-color="rgb(98.406982%, 48.802185%, 36.352539%)" offset="0.59375"/><stop stop-opacity="1" stop-color="rgb(98.443604%, 49.151611%, 36.33728%)" offset="0.625"/><stop stop-opacity="1" stop-color="rgb(98.48175%, 49.501038%, 36.320496%)" offset="0.65625"/><stop stop-opacity="1" stop-color="rgb(98.519897%, 49.850464%, 36.305237%)" offset="0.6875"/><stop stop-opacity="1" stop-color="rgb(98.558044%, 50.19989%, 36.289978%)" offset="0.71875"/><stop stop-opacity="1" stop-color="rgb(98.596191%, 50.549316%, 36.274719%)" offset="0.75"/><stop stop-opacity="1" stop-color="rgb(98.634338%, 50.898743%, 36.25946%)" offset="0.78125"/><stop stop-opacity="1" stop-color="rgb(98.670959%, 51.248169%, 36.244202%)" offset="0.800875"/><stop stop-opacity="1" stop-color="rgb(98.690796%, 51.423645%, 36.236572%)" offset="0.8125"/><stop stop-opacity="1" stop-color="rgb(98.709106%, 51.597595%, 36.227417%)" offset="0.84375"/><stop stop-opacity="1" stop-color="rgb(98.747253%, 51.947021%, 36.212158%)" offset="0.875"/><stop stop-opacity="1" stop-color="rgb(98.7854%, 52.297974%, 36.196899%)" offset="0.90625"/><stop stop-opacity="1" stop-color="rgb(98.823547%, 52.6474%, 36.181641%)" offset="0.9375"/><stop stop-opacity="1" stop-color="rgb(98.860168%, 52.996826%, 36.166382%)" offset="0.96875"/><stop stop-opacity="1" stop-color="rgb(98.898315%, 53.346252%, 36.149597%)" offset="1"/></linearGradient></defs><g clip-path="url(#e30f24fadf)"><g clip-path="url(#20e34f2321)"><path fill="url(#949ca680c4)" d="M 189.933594 120.429688 L 189.933594 300.183594 L 390.117188 300.183594 L 390.117188 120.429688 Z M 189.933594 120.429688 " fill-rule="nonzero"/></g></g><g clip-path="url(#74a2bfb740)"><g clip-path="url(#c8aa5ee15e)"><path fill="url(#735202b8a6)" d="M 241.882812 173.441406 L 241.882812 197.371094 L 338.148438 197.371094 L 338.148438 173.441406 Z M 241.882812 173.441406 " fill-rule="nonzero"/></g></g></svg>